<svg width="4" height="14" viewBox="0 0 4 14" fill="none" xmlns="http://www.w3.org/2000/svg">
<path d="M1.99992 3.66634C2.92039 3.66634 3.66659 2.92015 3.66659 1.99967C3.66659 1.0792 2.92039 0.333008 1.99992 0.333008C1.07944 0.333008 0.333252 1.0792 0.333252 1.99967C0.333252 2.92015 1.07944 3.66634 1.99992 3.66634Z" fill="white"/>
<path d="M1.99992 8.66634C2.92039 8.66634 3.66659 7.92015 3.66659 6.99967C3.66659 6.0792 2.92039 5.33301 1.99992 5.33301C1.07944 5.33301 0.333252 6.0792 0.333252 6.99967C0.333252 7.92015 1.07944 8.66634 1.99992 8.66634Z" fill="white"/>
<path d="M1.99992 13.6663C2.92039 13.6663 3.66659 12.9201 3.66659 11.9997C3.66659 11.0792 2.92039 10.333 1.99992 10.333C1.07944 10.333 0.333252 11.0792 0.333252 11.9997C0.333252 12.9201 1.07944 13.6663 1.99992 13.6663Z" fill="white"/>
</svg>
